<svg width="1920" height="179" viewBox="0 0 1920 179" fill="none" xmlns="http://www.w3.org/2000/svg">
<path fill-rule="evenodd" clip-rule="evenodd" d="M1920 149L1840.46 142.792C1759.54 136.583 1600.46 124.167 1440 127.271C1279.54 130.375 1120.46 149 960 133.479C799.543 117.958 640.457 68.2917 480 62.0833C319.543 55.875 160.457 93.125 79.5428 111.75L-5.24521e-05 130.375V-2.38419e-06H79.5428C160.457 -2.38419e-06 319.543 -2.38419e-06 480 -2.38419e-06C640.457 -2.38419e-06 799.543 -2.38419e-06 960 -2.38419e-06C1120.46 -2.38419e-06 1279.54 -2.38419e-06 1440 -2.38419e-06C1600.46 -2.38419e-06 1759.54 -2.38419e-06 1840.46 -2.38419e-06H1920V149Z" fill="#262B37"/>
<path opacity="0.1" fill-rule="evenodd" clip-rule="evenodd" d="M1920 179L1840.46 172.792C1759.54 166.583 1600.46 154.167 1440 157.271C1279.54 160.375 1120.46 179 960 163.479C799.543 147.958 640.457 98.2917 480 92.0833C319.543 85.875 160.457 123.125 79.5428 141.75L-5.24521e-05 160.375V30H79.5428C160.457 30 319.543 30 480 30C640.457 30 799.543 30 960 30C1120.46 30 1279.54 30 1440 30C1600.46 30 1759.54 30 1840.46 30H1920V179Z" fill="#262B37"/>
</svg>
