<svg width="24" height="24" viewBox="0 0 24 24" fill="none" xmlns="http://www.w3.org/2000/svg">
<path fill-rule="evenodd" clip-rule="evenodd" d="M23.9662 11.9832C23.9662 18.6007 18.6011 23.9653 11.9831 23.9653C5.36501 23.9653 0 18.6007 0 11.9832C0 5.36558 5.36501 0.000976562 11.9831 0.000976562C18.6011 0.000976562 23.9662 5.36558 23.9662 11.9832Z" fill="#8883F0" fill-opacity="0.2"/>
<path fill-rule="evenodd" clip-rule="evenodd" d="M17.8093 9.06816C18.2243 9.46764 18.2243 10.1153 17.8093 10.5148L11.4324 16.6523C11.0174 17.0518 10.3444 17.0518 9.92939 16.6523L6.74098 13.5835C6.32592 13.1841 6.32592 12.5364 6.74098 12.1369C7.15603 11.7374 7.82896 11.7374 8.24401 12.1369L10.6809 14.4824L16.3062 9.06816C16.7213 8.66869 17.3942 8.66869 17.8093 9.06816Z" fill="#8883F0"/>
</svg>
