<svg width="1930" height="179" preserveAspectRatio="none" viewBox="0 0 1920 179" fill="none" xmlns="http://www.w3.org/2000/svg">
<path fill-rule="evenodd" clip-rule="evenodd" d="M1920 30L1840.46 36.2083C1759.54 42.4167 1600.46 54.8333 1440 51.7292C1279.54 48.625 1120.46 30 960 45.5208C799.543 61.0417 640.457 110.708 480 116.917C319.543 123.125 160.457 85.875 79.5428 67.25L-5.24521e-05 48.625V179H79.5428C160.457 179 319.543 179 480 179C640.457 179 799.543 179 960 179C1120.46 179 1279.54 179 1440 179C1600.46 179 1759.54 179 1840.46 179H1920V30Z" fill="#121212"/>
<path opacity="0.1" fill-rule="evenodd" clip-rule="evenodd" d="M1920 0L1840.46 6.20833C1759.54 12.4167 1600.46 24.8333 1440 21.7292C1279.54 18.625 1120.46 0 960 15.5208C799.543 31.0417 640.457 80.7083 480 86.9167C319.543 93.125 160.457 55.875 79.5428 37.25L-5.24521e-05 18.625V149H79.5428C160.457 149 319.543 149 480 149C640.457 149 799.543 149 960 149C1120.46 149 1279.54 149 1440 149C1600.46 149 1759.54 149 1840.46 149H1920V0Z" fill="#121212"/>
</svg>
