<svg width="1930" height="179" preserveAspectRatio="none" viewBox="0 0 1920 179" fill="none" xmlns="http://www.w3.org/2000/svg">
<path fill-rule="evenodd" clip-rule="evenodd" d="M1920 149L1840.46 142.792C1759.54 136.583 1600.46 124.167 1440 127.271C1279.54 130.375 1120.46 149 960 133.479C799.543 117.958 640.457 68.2917 480 62.0833C319.543 55.875 160.457 93.125 79.5428 111.75L0 130.375V0H79.5428C160.457 0 319.543 0 480 0C640.457 0 799.543 0 960 0C1120.46 0 1279.54 0 1440 0C1600.46 0 1759.54 0 1840.46 0H1920V149Z" fill="#262B37"/>
<path opacity="0.1" fill-rule="evenodd" clip-rule="evenodd" d="M1920 179L1840.46 172.792C1759.54 166.583 1600.46 154.167 1440 157.271C1279.54 160.375 1120.46 179 960 163.479C799.543 147.958 640.457 98.2917 480 92.0833C319.543 85.875 160.457 123.125 79.5428 141.75L0 160.375V30H79.5428C160.457 30 319.543 30 480 30C640.457 30 799.543 30 960 30C1120.46 30 1279.54 30 1440 30C1600.46 30 1759.54 30 1840.46 30H1920V179Z" fill="#262B37"/>
</svg>
