<svg width="1920" height="150" viewBox="0 0 1920 150" fill="none" xmlns="http://www.w3.org/2000/svg">
<path fill-rule="evenodd" clip-rule="evenodd" d="M0 149L79.5429 142.792C160.457 136.583 319.543 124.167 480 127.271C640.457 130.375 799.543 149 960 133.479C1120.46 117.958 1279.54 68.2917 1440 62.0833C1600.46 55.875 1759.54 93.125 1840.46 111.75L1920 130.375V-2.38419e-06H1840.46C1759.54 -2.38419e-06 1600.46 -2.38419e-06 1440 -2.38419e-06C1279.54 -2.38419e-06 1120.46 -2.38419e-06 960 -2.38419e-06C799.543 -2.38419e-06 640.457 -2.38419e-06 480 -2.38419e-06C319.543 -2.38419e-06 160.457 -2.38419e-06 79.5429 -2.38419e-06H0V149Z" fill="#111111"/>
<path opacity="0.1" fill-rule="evenodd" clip-rule="evenodd" d="M0 150L79.5429 143.792C160.457 137.583 319.543 125.167 480 128.271C640.457 131.375 799.543 150 960 134.479C1120.46 118.958 1279.54 69.2917 1440 63.0833C1600.46 56.875 1759.54 94.125 1840.46 112.75L1920 131.375V0.999998H1840.46C1759.54 0.999998 1600.46 0.999998 1440 0.999998C1279.54 0.999998 1120.46 0.999998 960 0.999998C799.543 0.999998 640.457 0.999998 480 0.999998C319.543 0.999998 160.457 0.999998 79.5429 0.999998H0V150Z" fill="#111111"/>
</svg>
