<svg width="1920" height="179" viewBox="0 0 1920 179" fill="none" xmlns="http://www.w3.org/2000/svg">
<path fill-rule="evenodd" clip-rule="evenodd" d="M0 149L79.5429 142.792C160.457 136.583 319.543 124.167 480 127.271C640.457 130.375 799.543 149 960 133.479C1120.46 117.958 1279.54 68.2917 1440 62.0833C1600.46 55.875 1759.54 93.125 1840.46 111.75L1920 130.375V-2.38419e-06H1840.46C1759.54 -2.38419e-06 1600.46 -2.38419e-06 1440 -2.38419e-06C1279.54 -2.38419e-06 1120.46 -2.38419e-06 960 -2.38419e-06C799.543 -2.38419e-06 640.457 -2.38419e-06 480 -2.38419e-06C319.543 -2.38419e-06 160.457 -2.38419e-06 79.5429 -2.38419e-06H0V149Z" fill="#8883F0"/>
<path opacity="0.1" fill-rule="evenodd" clip-rule="evenodd" d="M0 179L79.5429 172.792C160.457 166.583 319.543 154.167 480 157.271C640.457 160.375 799.543 179 960 163.479C1120.46 147.958 1279.54 98.2917 1440 92.0833C1600.46 85.875 1759.54 123.125 1840.46 141.75L1920 160.375V30H1840.46C1759.54 30 1600.46 30 1440 30C1279.54 30 1120.46 30 960 30C799.543 30 640.457 30 480 30C319.543 30 160.457 30 79.5429 30H0V179Z" fill="#8883F0"/>
</svg>
