<svg width="1920" height="179" viewBox="0 0 1920 179" fill="none" xmlns="http://www.w3.org/2000/svg">
<path fill-rule="evenodd" clip-rule="evenodd" d="M0 30L79.5429 36.2083C160.457 42.4167 319.543 54.8333 480 51.7292C640.457 48.625 799.543 30 960 45.5208C1120.46 61.0417 1279.54 110.708 1440 116.917C1600.46 123.125 1759.54 85.875 1840.46 67.25L1920 48.625V179H1840.46C1759.54 179 1600.46 179 1440 179C1279.54 179 1120.46 179 960 179C799.543 179 640.457 179 480 179C319.543 179 160.457 179 79.5429 179H0V30Z" fill="#F7FAFE"/>
<path opacity="0.1" fill-rule="evenodd" clip-rule="evenodd" d="M0 0L79.5429 6.20833C160.457 12.4167 319.543 24.8333 480 21.7292C640.457 18.625 799.543 0 960 15.5208C1120.46 31.0417 1279.54 80.7083 1440 86.9167C1600.46 93.125 1759.54 55.875 1840.46 37.25L1920 18.625V149H1840.46C1759.54 149 1600.46 149 1440 149C1279.54 149 1120.46 149 960 149C799.543 149 640.457 149 480 149C319.543 149 160.457 149 79.5429 149H0V0Z" fill="#F7FAFE"/>
</svg>
